<?xml version="1.0" standalone="no"?>
<!DOCTYPE svg PUBLIC "-//W3C//DTD SVG 20010904//EN"
 "http://www.w3.org/TR/2001/REC-SVG-20010904/DTD/svg10.dtd">
<svg version="1.0" xmlns="http://www.w3.org/2000/svg"
 width="161.000000pt" height="161.000000pt" viewBox="0 0 161.000000 161.000000"
 preserveAspectRatio="xMidYMid meet">
<metadata>
Created by potrace 1.11, written by Peter Selinger 2001-2013
</metadata>
<g transform="translate(0.000000,161.000000) scale(0.100000,-0.100000)"
fill="#000000" stroke="none">
<path d="M320 1566 c-149 -33 -253 -141 -280 -289 -7 -36 -10 -223 -8 -509 3
-442 4 -454 25 -508 33 -81 101 -153 181 -192 l67 -33 500 0 500 0 67 33 c122
60 193 168 205 314 3 38 9 68 14 68 4 0 7 46 7 102 0 57 0 108 2 113 1 6 2 12
1 15 -1 3 -4 66 -5 140 -2 74 -6 145 -9 158 -4 13 -7 81 -8 150 -2 151 -17
219 -65 289 -56 82 -135 133 -235 152 -81 15 -890 13 -959 -3z"/>
</g>
</svg>
